<mxfile host="app.diagrams.net" agent="Mozilla/5.0 (Windows NT 10.0; Win64; x64) AppleWebKit/537.36 (KHTML, like Gecko) Chrome/131.0.0.0 Safari/537.36" version="25.0.3">
  <diagram name="Page-1" id="g_Lc-TvkA9Ks2xUtBGFE">
    <mxGraphModel dx="1034" dy="446" grid="1" gridSize="10" guides="1" tooltips="1" connect="1" arrows="1" fold="1" page="1" pageScale="1" pageWidth="827" pageHeight="1169" math="0" shadow="0">
      <root>
        <mxCell id="0" />
        <mxCell id="1" parent="0" />
        <mxCell id="t6RCfd67PtAwQm1lzOVK-1" style="edgeStyle=orthogonalEdgeStyle;rounded=0;orthogonalLoop=1;jettySize=auto;html=1;entryX=0.5;entryY=0;entryDx=0;entryDy=0;" edge="1" parent="1" source="t6RCfd67PtAwQm1lzOVK-2" target="t6RCfd67PtAwQm1lzOVK-5">
          <mxGeometry relative="1" as="geometry" />
        </mxCell>
        <mxCell id="t6RCfd67PtAwQm1lzOVK-2" value="Start" style="strokeWidth=2;html=1;shape=mxgraph.flowchart.terminator;whiteSpace=wrap;" vertex="1" parent="1">
          <mxGeometry x="364" y="30" width="100" height="60" as="geometry" />
        </mxCell>
        <mxCell id="t6RCfd67PtAwQm1lzOVK-3" value="Stop" style="strokeWidth=2;html=1;shape=mxgraph.flowchart.terminator;whiteSpace=wrap;" vertex="1" parent="1">
          <mxGeometry x="364" y="2250" width="100" height="60" as="geometry" />
        </mxCell>
        <mxCell id="t6RCfd67PtAwQm1lzOVK-4" style="edgeStyle=orthogonalEdgeStyle;rounded=0;orthogonalLoop=1;jettySize=auto;html=1;entryX=0.5;entryY=0;entryDx=0;entryDy=0;" edge="1" parent="1" source="t6RCfd67PtAwQm1lzOVK-5" target="t6RCfd67PtAwQm1lzOVK-7">
          <mxGeometry relative="1" as="geometry" />
        </mxCell>
        <mxCell id="t6RCfd67PtAwQm1lzOVK-5" value="a = 0 , b = 0" style="rounded=0;whiteSpace=wrap;html=1;" vertex="1" parent="1">
          <mxGeometry x="354" y="140" width="120" height="60" as="geometry" />
        </mxCell>
        <mxCell id="t6RCfd67PtAwQm1lzOVK-6" style="edgeStyle=orthogonalEdgeStyle;rounded=0;orthogonalLoop=1;jettySize=auto;html=1;entryX=0.5;entryY=0;entryDx=0;entryDy=0;" edge="1" parent="1" source="t6RCfd67PtAwQm1lzOVK-7" target="t6RCfd67PtAwQm1lzOVK-9">
          <mxGeometry relative="1" as="geometry" />
        </mxCell>
        <mxCell id="t6RCfd67PtAwQm1lzOVK-7" value="แสดงคำว่า &quot;Please enter value (a b) : &quot;" style="shape=parallelogram;perimeter=parallelogramPerimeter;whiteSpace=wrap;html=1;fixedSize=1;" vertex="1" parent="1">
          <mxGeometry x="284" y="250" width="260" height="60" as="geometry" />
        </mxCell>
        <mxCell id="t6RCfd67PtAwQm1lzOVK-8" style="edgeStyle=orthogonalEdgeStyle;rounded=0;orthogonalLoop=1;jettySize=auto;html=1;entryX=0.5;entryY=0;entryDx=0;entryDy=0;" edge="1" parent="1" source="t6RCfd67PtAwQm1lzOVK-9" target="t6RCfd67PtAwQm1lzOVK-11">
          <mxGeometry relative="1" as="geometry" />
        </mxCell>
        <mxCell id="t6RCfd67PtAwQm1lzOVK-9" value="ใส่ค่า a, b" style="shape=parallelogram;perimeter=parallelogramPerimeter;whiteSpace=wrap;html=1;fixedSize=1;" vertex="1" parent="1">
          <mxGeometry x="354" y="350" width="120" height="60" as="geometry" />
        </mxCell>
        <mxCell id="t6RCfd67PtAwQm1lzOVK-10" style="edgeStyle=orthogonalEdgeStyle;rounded=0;orthogonalLoop=1;jettySize=auto;html=1;entryX=0.5;entryY=0;entryDx=0;entryDy=0;" edge="1" parent="1" source="t6RCfd67PtAwQm1lzOVK-11" target="t6RCfd67PtAwQm1lzOVK-13">
          <mxGeometry relative="1" as="geometry" />
        </mxCell>
        <mxCell id="t6RCfd67PtAwQm1lzOVK-11" value="แสดง &quot;a = &quot; a &quot;, b = &quot; b" style="shape=parallelogram;perimeter=parallelogramPerimeter;whiteSpace=wrap;html=1;fixedSize=1;" vertex="1" parent="1">
          <mxGeometry x="284" y="450" width="260" height="60" as="geometry" />
        </mxCell>
        <mxCell id="t6RCfd67PtAwQm1lzOVK-12" style="edgeStyle=orthogonalEdgeStyle;rounded=0;orthogonalLoop=1;jettySize=auto;html=1;entryX=0.5;entryY=0;entryDx=0;entryDy=0;" edge="1" parent="1" source="t6RCfd67PtAwQm1lzOVK-13" target="t6RCfd67PtAwQm1lzOVK-15">
          <mxGeometry relative="1" as="geometry" />
        </mxCell>
        <mxCell id="t6RCfd67PtAwQm1lzOVK-13" value="แสดง &quot;a + b = &quot; a + b" style="shape=parallelogram;perimeter=parallelogramPerimeter;whiteSpace=wrap;html=1;fixedSize=1;" vertex="1" parent="1">
          <mxGeometry x="284" y="550" width="260" height="60" as="geometry" />
        </mxCell>
        <mxCell id="t6RCfd67PtAwQm1lzOVK-14" style="edgeStyle=orthogonalEdgeStyle;rounded=0;orthogonalLoop=1;jettySize=auto;html=1;" edge="1" parent="1" source="t6RCfd67PtAwQm1lzOVK-15" target="t6RCfd67PtAwQm1lzOVK-17">
          <mxGeometry relative="1" as="geometry" />
        </mxCell>
        <mxCell id="t6RCfd67PtAwQm1lzOVK-15" value="แสดง &quot;a - b = &quot; a - b" style="shape=parallelogram;perimeter=parallelogramPerimeter;whiteSpace=wrap;html=1;fixedSize=1;" vertex="1" parent="1">
          <mxGeometry x="284" y="650" width="260" height="60" as="geometry" />
        </mxCell>
        <mxCell id="t6RCfd67PtAwQm1lzOVK-16" style="edgeStyle=orthogonalEdgeStyle;rounded=0;orthogonalLoop=1;jettySize=auto;html=1;" edge="1" parent="1" source="t6RCfd67PtAwQm1lzOVK-17" target="t6RCfd67PtAwQm1lzOVK-19">
          <mxGeometry relative="1" as="geometry" />
        </mxCell>
        <mxCell id="t6RCfd67PtAwQm1lzOVK-17" value="แสดง &quot;a * b = &quot; a * b" style="shape=parallelogram;perimeter=parallelogramPerimeter;whiteSpace=wrap;html=1;fixedSize=1;" vertex="1" parent="1">
          <mxGeometry x="284" y="750" width="260" height="60" as="geometry" />
        </mxCell>
        <mxCell id="t6RCfd67PtAwQm1lzOVK-18" style="edgeStyle=orthogonalEdgeStyle;rounded=0;orthogonalLoop=1;jettySize=auto;html=1;entryX=0.5;entryY=0;entryDx=0;entryDy=0;" edge="1" parent="1" source="t6RCfd67PtAwQm1lzOVK-19" target="t6RCfd67PtAwQm1lzOVK-21">
          <mxGeometry relative="1" as="geometry" />
        </mxCell>
        <mxCell id="t6RCfd67PtAwQm1lzOVK-19" value="แสดง &quot;a / b (b must greater than 0) = &quot; &lt;br&gt;a / b" style="shape=parallelogram;perimeter=parallelogramPerimeter;whiteSpace=wrap;html=1;fixedSize=1;" vertex="1" parent="1">
          <mxGeometry x="284" y="850" width="260" height="60" as="geometry" />
        </mxCell>
        <mxCell id="t6RCfd67PtAwQm1lzOVK-20" style="edgeStyle=orthogonalEdgeStyle;rounded=0;orthogonalLoop=1;jettySize=auto;html=1;entryX=0.5;entryY=0;entryDx=0;entryDy=0;" edge="1" parent="1" source="t6RCfd67PtAwQm1lzOVK-21" target="t6RCfd67PtAwQm1lzOVK-23">
          <mxGeometry relative="1" as="geometry" />
        </mxCell>
        <mxCell id="t6RCfd67PtAwQm1lzOVK-21" value="แสดง &quot;a % b = &quot; a % b" style="shape=parallelogram;perimeter=parallelogramPerimeter;whiteSpace=wrap;html=1;fixedSize=1;" vertex="1" parent="1">
          <mxGeometry x="284" y="950" width="260" height="60" as="geometry" />
        </mxCell>
        <mxCell id="t6RCfd67PtAwQm1lzOVK-22" style="edgeStyle=orthogonalEdgeStyle;rounded=0;orthogonalLoop=1;jettySize=auto;html=1;entryX=0.5;entryY=0;entryDx=0;entryDy=0;" edge="1" parent="1" source="t6RCfd67PtAwQm1lzOVK-23" target="t6RCfd67PtAwQm1lzOVK-25">
          <mxGeometry relative="1" as="geometry" />
        </mxCell>
        <mxCell id="t6RCfd67PtAwQm1lzOVK-23" value="แสดง &quot;++a = &quot; ++a" style="shape=parallelogram;perimeter=parallelogramPerimeter;whiteSpace=wrap;html=1;fixedSize=1;" vertex="1" parent="1">
          <mxGeometry x="284" y="1050" width="260" height="60" as="geometry" />
        </mxCell>
        <mxCell id="t6RCfd67PtAwQm1lzOVK-24" style="edgeStyle=orthogonalEdgeStyle;rounded=0;orthogonalLoop=1;jettySize=auto;html=1;entryX=0.5;entryY=0;entryDx=0;entryDy=0;" edge="1" parent="1" source="t6RCfd67PtAwQm1lzOVK-25" target="t6RCfd67PtAwQm1lzOVK-27">
          <mxGeometry relative="1" as="geometry" />
        </mxCell>
        <mxCell id="t6RCfd67PtAwQm1lzOVK-25" value="แสดง &quot;a-- = &quot; a--" style="shape=parallelogram;perimeter=parallelogramPerimeter;whiteSpace=wrap;html=1;fixedSize=1;" vertex="1" parent="1">
          <mxGeometry x="284" y="1150" width="260" height="60" as="geometry" />
        </mxCell>
        <mxCell id="t6RCfd67PtAwQm1lzOVK-26" style="edgeStyle=orthogonalEdgeStyle;rounded=0;orthogonalLoop=1;jettySize=auto;html=1;entryX=0.5;entryY=0;entryDx=0;entryDy=0;" edge="1" parent="1" source="t6RCfd67PtAwQm1lzOVK-27" target="t6RCfd67PtAwQm1lzOVK-29">
          <mxGeometry relative="1" as="geometry" />
        </mxCell>
        <mxCell id="t6RCfd67PtAwQm1lzOVK-27" value="แสดง &quot;a += 1 &quot; a += 1" style="shape=parallelogram;perimeter=parallelogramPerimeter;whiteSpace=wrap;html=1;fixedSize=1;" vertex="1" parent="1">
          <mxGeometry x="284" y="1250" width="260" height="60" as="geometry" />
        </mxCell>
        <mxCell id="t6RCfd67PtAwQm1lzOVK-28" style="edgeStyle=orthogonalEdgeStyle;rounded=0;orthogonalLoop=1;jettySize=auto;html=1;entryX=0.5;entryY=0;entryDx=0;entryDy=0;" edge="1" parent="1" source="t6RCfd67PtAwQm1lzOVK-29" target="t6RCfd67PtAwQm1lzOVK-31">
          <mxGeometry relative="1" as="geometry" />
        </mxCell>
        <mxCell id="t6RCfd67PtAwQm1lzOVK-29" value="แสดง &quot;a += b &quot; a += b" style="shape=parallelogram;perimeter=parallelogramPerimeter;whiteSpace=wrap;html=1;fixedSize=1;" vertex="1" parent="1">
          <mxGeometry x="284" y="1350" width="260" height="60" as="geometry" />
        </mxCell>
        <mxCell id="t6RCfd67PtAwQm1lzOVK-30" style="edgeStyle=orthogonalEdgeStyle;rounded=0;orthogonalLoop=1;jettySize=auto;html=1;entryX=0.5;entryY=0;entryDx=0;entryDy=0;" edge="1" parent="1" source="t6RCfd67PtAwQm1lzOVK-31" target="t6RCfd67PtAwQm1lzOVK-33">
          <mxGeometry relative="1" as="geometry" />
        </mxCell>
        <mxCell id="t6RCfd67PtAwQm1lzOVK-31" value="แสดง &quot;a -= 1 &quot; a -= 1" style="shape=parallelogram;perimeter=parallelogramPerimeter;whiteSpace=wrap;html=1;fixedSize=1;" vertex="1" parent="1">
          <mxGeometry x="284" y="1450" width="260" height="60" as="geometry" />
        </mxCell>
        <mxCell id="t6RCfd67PtAwQm1lzOVK-32" style="edgeStyle=orthogonalEdgeStyle;rounded=0;orthogonalLoop=1;jettySize=auto;html=1;entryX=0.5;entryY=0;entryDx=0;entryDy=0;" edge="1" parent="1" source="t6RCfd67PtAwQm1lzOVK-33" target="t6RCfd67PtAwQm1lzOVK-35">
          <mxGeometry relative="1" as="geometry" />
        </mxCell>
        <mxCell id="t6RCfd67PtAwQm1lzOVK-33" value="แสดง &quot;a -= b &quot; a -= b" style="shape=parallelogram;perimeter=parallelogramPerimeter;whiteSpace=wrap;html=1;fixedSize=1;" vertex="1" parent="1">
          <mxGeometry x="284" y="1550" width="260" height="60" as="geometry" />
        </mxCell>
        <mxCell id="t6RCfd67PtAwQm1lzOVK-34" style="edgeStyle=orthogonalEdgeStyle;rounded=0;orthogonalLoop=1;jettySize=auto;html=1;entryX=0.5;entryY=0;entryDx=0;entryDy=0;" edge="1" parent="1" source="t6RCfd67PtAwQm1lzOVK-35" target="t6RCfd67PtAwQm1lzOVK-37">
          <mxGeometry relative="1" as="geometry" />
        </mxCell>
        <mxCell id="t6RCfd67PtAwQm1lzOVK-35" value="แสดง &quot;a *= 1 &quot; a *= 1" style="shape=parallelogram;perimeter=parallelogramPerimeter;whiteSpace=wrap;html=1;fixedSize=1;" vertex="1" parent="1">
          <mxGeometry x="284" y="1640" width="260" height="60" as="geometry" />
        </mxCell>
        <mxCell id="t6RCfd67PtAwQm1lzOVK-36" style="edgeStyle=orthogonalEdgeStyle;rounded=0;orthogonalLoop=1;jettySize=auto;html=1;entryX=0.5;entryY=0;entryDx=0;entryDy=0;" edge="1" parent="1" source="t6RCfd67PtAwQm1lzOVK-37" target="t6RCfd67PtAwQm1lzOVK-39">
          <mxGeometry relative="1" as="geometry" />
        </mxCell>
        <mxCell id="t6RCfd67PtAwQm1lzOVK-37" value="แสดง &quot;a *= b &quot; a *= b" style="shape=parallelogram;perimeter=parallelogramPerimeter;whiteSpace=wrap;html=1;fixedSize=1;" vertex="1" parent="1">
          <mxGeometry x="284" y="1740" width="260" height="60" as="geometry" />
        </mxCell>
        <mxCell id="t6RCfd67PtAwQm1lzOVK-38" style="edgeStyle=orthogonalEdgeStyle;rounded=0;orthogonalLoop=1;jettySize=auto;html=1;entryX=0.5;entryY=0;entryDx=0;entryDy=0;" edge="1" parent="1" source="t6RCfd67PtAwQm1lzOVK-39" target="t6RCfd67PtAwQm1lzOVK-41">
          <mxGeometry relative="1" as="geometry" />
        </mxCell>
        <mxCell id="t6RCfd67PtAwQm1lzOVK-39" value="แสดง &quot;a /= 1 &quot; a /= 1" style="shape=parallelogram;perimeter=parallelogramPerimeter;whiteSpace=wrap;html=1;fixedSize=1;" vertex="1" parent="1">
          <mxGeometry x="284" y="1840" width="260" height="60" as="geometry" />
        </mxCell>
        <mxCell id="t6RCfd67PtAwQm1lzOVK-40" style="edgeStyle=orthogonalEdgeStyle;rounded=0;orthogonalLoop=1;jettySize=auto;html=1;entryX=0.5;entryY=0;entryDx=0;entryDy=0;" edge="1" parent="1" source="t6RCfd67PtAwQm1lzOVK-41" target="t6RCfd67PtAwQm1lzOVK-43">
          <mxGeometry relative="1" as="geometry" />
        </mxCell>
        <mxCell id="t6RCfd67PtAwQm1lzOVK-41" value="แสดง &quot;a /= b &quot; a /= b" style="shape=parallelogram;perimeter=parallelogramPerimeter;whiteSpace=wrap;html=1;fixedSize=1;" vertex="1" parent="1">
          <mxGeometry x="284" y="1930" width="260" height="60" as="geometry" />
        </mxCell>
        <mxCell id="t6RCfd67PtAwQm1lzOVK-42" style="edgeStyle=orthogonalEdgeStyle;rounded=0;orthogonalLoop=1;jettySize=auto;html=1;entryX=0.5;entryY=0;entryDx=0;entryDy=0;" edge="1" parent="1" source="t6RCfd67PtAwQm1lzOVK-43" target="t6RCfd67PtAwQm1lzOVK-45">
          <mxGeometry relative="1" as="geometry" />
        </mxCell>
        <mxCell id="t6RCfd67PtAwQm1lzOVK-43" value="แสดง &quot;a &amp;amp;&amp;amp; b &quot; a &amp;amp;&amp;amp; b" style="shape=parallelogram;perimeter=parallelogramPerimeter;whiteSpace=wrap;html=1;fixedSize=1;" vertex="1" parent="1">
          <mxGeometry x="284" y="2030" width="260" height="60" as="geometry" />
        </mxCell>
        <mxCell id="t6RCfd67PtAwQm1lzOVK-44" style="edgeStyle=orthogonalEdgeStyle;rounded=0;orthogonalLoop=1;jettySize=auto;html=1;entryX=0.5;entryY=0;entryDx=0;entryDy=0;entryPerimeter=0;" edge="1" parent="1" source="t6RCfd67PtAwQm1lzOVK-45" target="t6RCfd67PtAwQm1lzOVK-3">
          <mxGeometry relative="1" as="geometry" />
        </mxCell>
        <mxCell id="t6RCfd67PtAwQm1lzOVK-45" value="แสดง &quot;a || b &quot; a || b" style="shape=parallelogram;perimeter=parallelogramPerimeter;whiteSpace=wrap;html=1;fixedSize=1;" vertex="1" parent="1">
          <mxGeometry x="284" y="2130" width="260" height="60" as="geometry" />
        </mxCell>
      </root>
    </mxGraphModel>
  </diagram>
</mxfile>
